<svg width="680" height="276" viewBox="0 0 680 276" fill="none" xmlns="http://www.w3.org/2000/svg">
<g clip-path="url(#clip0_9_2491)">
<path d="M630.34 53.7511C630.34 56.5777 629.502 59.3408 627.933 61.6911C626.363 64.0413 624.132 65.8731 621.522 66.9548C618.911 68.0365 616.039 68.3195 613.268 67.7681C610.497 67.2166 607.952 65.8555 605.954 63.8568C603.956 61.8581 602.596 59.3115 602.045 56.5392C601.494 53.7669 601.776 50.8934 602.858 48.2819C603.939 45.6705 605.77 43.4384 608.119 41.868C610.468 40.2977 613.23 39.4595 616.055 39.4595C619.844 39.4595 623.477 40.9652 626.156 43.6454C628.835 46.3256 630.34 49.9607 630.34 53.7511ZM660.695 34.0998V73.4024C660.688 80.0334 658.051 86.3907 653.365 91.0795C648.678 95.7684 642.324 98.4059 635.696 98.4133H596.413C589.785 98.4059 583.431 95.7684 578.744 91.0795C574.058 86.3907 571.421 80.0334 571.414 73.4024V34.0998C571.421 27.4688 574.058 21.1115 578.744 16.4226C583.431 11.7338 589.785 9.0963 596.413 9.08887H635.697C642.325 9.09664 648.679 11.7343 653.365 16.4231C658.051 21.1119 660.688 27.469 660.695 34.0998ZM637.482 53.7511C637.482 49.5112 636.226 45.3665 633.871 41.8411C631.517 38.3157 628.17 35.568 624.255 33.9455C620.34 32.323 616.031 31.8984 611.875 32.7256C607.718 33.5528 603.9 35.5945 600.904 38.5925C597.907 41.5906 595.866 45.4104 595.04 49.5688C594.213 53.7273 594.637 58.0376 596.259 61.9548C597.881 65.872 600.627 69.2201 604.151 71.5756C607.674 73.9312 611.817 75.1885 616.055 75.1885C621.738 75.1885 627.188 72.9299 631.207 68.9096C635.225 64.8893 637.482 59.4366 637.482 53.7511ZM644.629 30.5263C644.629 29.4657 644.314 28.429 643.725 27.5472C643.136 26.6654 642.299 25.9781 641.32 25.5722C640.341 25.1664 639.263 25.0602 638.223 25.2671C637.184 25.474 636.229 25.9847 635.479 26.7346C634.73 27.4845 634.219 28.44 634.012 29.4802C633.805 30.5203 633.912 31.5985 634.317 32.5783C634.723 33.5581 635.41 34.3956 636.291 34.9848C637.173 35.574 638.209 35.8885 639.269 35.8885C640.69 35.8875 642.052 35.3221 643.056 34.3166C644.061 33.3111 644.625 31.9478 644.625 30.5263H644.629Z" fill="#C6D4D3"/>
<path d="M153.38 230.84C153.274 222.234 150.713 213.838 145.997 206.639C141.281 199.441 134.608 193.741 126.763 190.21C118.918 186.68 110.227 185.465 101.715 186.71C93.2035 187.955 85.2243 191.608 78.7177 197.237C72.2111 202.867 67.4479 210.24 64.9891 218.488C62.5304 226.735 62.4784 235.514 64.8394 243.79C67.2004 252.066 71.876 259.494 78.3155 265.201C84.7551 270.908 92.6904 274.654 101.187 276V243.993H89.9049V230.842H101.19V220.848C100.929 218.525 101.18 216.173 101.927 213.958C102.674 211.742 103.898 209.718 105.512 208.028C107.126 206.338 109.092 205.022 111.27 204.175C113.447 203.327 115.784 202.969 118.116 203.124C121.5 203.17 124.876 203.471 128.215 204.026V215.316H122.573C121.6 215.193 120.612 215.291 119.681 215.602C118.751 215.913 117.902 216.429 117.198 217.112C116.493 217.795 115.952 218.628 115.613 219.549C115.273 220.47 115.146 221.456 115.238 222.433V230.956H127.765L125.733 244.106H115.3V275.718C125.962 274.029 135.667 268.573 142.653 260.34C149.64 252.106 153.446 241.64 153.38 230.84Z" fill="#C6D4D3"/>
<path d="M266.44 67.5831C270.728 77.244 268.299 87.3097 260.398 92.6336C257.394 94.7477 253.819 95.8994 250.147 95.9365C246.273 95.8524 242.499 94.6882 239.25 92.5749C237.14 91.1906 235.157 89.6208 233.325 87.8842C232.734 87.3569 232.145 86.8296 231.546 86.319C231.274 86.0791 231.032 85.8073 230.825 85.5095C230.315 85.9653 229.817 86.4122 229.337 86.8513C227.622 88.4736 225.811 89.9921 223.915 91.399C216.987 96.3221 210.101 97.2209 203.438 94.0801C199.236 92.1014 195.918 88.6326 194.126 84.3459C192.334 80.0591 192.197 75.2595 193.74 70.877C195.916 64.9606 198.39 59.1585 201.154 53.4932L201.238 53.3119C204.962 45.3388 208.854 37.2929 212.615 29.5139L215.958 22.5915C217.375 19.1799 219.702 16.2232 222.683 14.0439C224.334 12.9225 226.201 12.1592 228.164 11.8032C230.127 11.4472 232.143 11.5064 234.082 11.9768C236.086 12.5028 237.962 13.4346 239.592 14.7147C241.223 15.9947 242.573 17.5958 243.561 19.4188C246.778 25.0977 249.632 31.0715 252.057 36.2256C256.965 46.6257 261.759 57.0782 266.44 67.5831ZM241.659 28.315L239.319 23.3997C238.613 21.7031 237.435 20.2449 235.925 19.198C234.415 18.1512 232.637 17.5596 230.801 17.4935C228.926 17.5374 227.102 18.1134 225.542 19.1546C223.981 20.1957 222.749 21.6591 221.988 23.3741C221.432 24.4925 220.857 25.602 220.284 26.7064C219.331 28.5589 218.345 30.4689 217.442 32.4018C211.118 46.004 205.286 58.6358 199.619 71.0124C198.796 72.7384 198.354 74.6214 198.322 76.5336C198.291 78.4457 198.672 80.3422 199.438 82.0943C200.112 83.7418 201.118 85.2331 202.392 86.4759C203.666 87.7187 205.182 88.6865 206.846 89.3193C208.193 89.8194 209.619 90.0749 211.057 90.0738C213.163 90.0619 215.235 89.5402 217.097 88.5532C219.507 87.1778 221.759 85.5396 223.809 83.6685C224.72 82.9025 225.63 82.1249 226.563 81.4036C229.004 79.514 227.659 77.3577 227.136 76.5189C224.618 72.6613 222.332 68.6577 220.288 64.5292C218.443 60.819 218.025 56.5594 219.115 52.5612C220.004 49.527 222.057 46.9678 224.825 45.4422C227.593 43.9166 230.852 43.5485 233.89 44.4183C240.03 45.9963 243.761 52.3199 242.568 59.1248C241.75 63.7951 239.785 68.3172 236.2 73.7854C235.968 74.1314 235.69 74.494 235.415 74.8617C234.403 76.1984 233.26 77.7177 233.514 79.3506C233.783 81.0806 235.311 82.3254 236.656 83.4221C236.956 83.6672 237.254 83.9111 237.525 84.1473C240.919 87.1463 244.773 89.9308 249.968 90.0023H250.078L250.184 89.9895C250.513 89.9474 250.841 89.9091 251.175 89.8759C252.013 89.8122 252.844 89.675 253.659 89.4661C255.469 88.9501 257.144 88.0436 258.567 86.8104C259.99 85.5772 261.125 84.0472 261.893 82.3279C262.663 80.5729 263.047 78.673 263.019 76.7567C262.991 74.8404 262.553 72.9525 261.733 71.2205C255.212 56.8293 248.326 42.336 241.659 28.315ZM236.759 59.1963C237.525 55.3662 236.986 53.0374 234.946 51.3917C233.781 50.3998 232.308 49.8433 230.779 49.8175C229.613 49.8396 228.468 50.1342 227.436 50.6781C225.139 51.8335 224.147 53.8341 224.328 56.985C224.649 62.5247 227.478 67.0379 230.671 71.6788C233.556 67.9902 235.63 63.7341 236.759 59.1887V59.1963Z" fill="#C6D4D3"/>
<path d="M45.6007 5.78345C45.9657 5.95708 46.1941 6.25839 46.4519 6.28647C54.2897 7.17598 61.9764 9.09436 69.3135 11.9921C69.4606 12.0633 69.6033 12.143 69.741 12.2309L67.8345 16.1989C46.8666 7.73683 26.0149 7.74066 4.95897 16.2155L2.96185 12.0943C6.25296 11.0103 9.35137 9.79618 12.5519 8.98291C16.7133 7.92578 20.9551 7.18401 25.165 6.31839C25.8563 6.21279 26.5413 6.06959 27.217 5.88941C33.2747 5.78345 39.3758 5.78345 45.6007 5.78345Z" fill="#C6D4D3"/>
<path d="M32.2589 99.8855C32.3621 99.3442 32.6597 98.8595 33.0955 98.5227C33.5314 98.1859 34.0753 98.0203 34.6248 98.0572C36.7036 98.0572 38.7824 98.0572 40.939 98.0572V96.2544H32.4937V90.5552H42.9974C42.9107 91.1739 42.582 91.7328 42.0836 92.1092C41.5851 92.4855 40.9577 92.6484 40.3393 92.5622C38.4353 92.5788 36.5313 92.5622 34.5457 92.5622L34.4768 94.0725H43.1084C43.1084 96.0195 43.1084 97.8274 43.1084 99.7591C39.534 99.8855 35.9571 99.8855 32.2589 99.8855Z" fill="#C6D4D3"/>
<path d="M62.2987 99.8853C62.1826 98.0226 62.1826 96.1586 62.1826 94.2244C65.7429 94.2244 69.2012 94.2244 72.7743 94.1797C72.8904 96.0207 72.8905 97.9077 72.8905 99.8853C72.1473 99.9001 71.4041 99.8574 70.6675 99.7577C70.5632 98.6117 70.5206 97.461 70.5398 96.3105H64.269V99.8853H62.2987Z" fill="#C6D4D3"/>
<path d="M0 90.5805C3.95596 90.4758 7.91957 90.4758 12.0019 90.4758C11.2515 93.2629 8.98003 92.3705 7.05437 92.6399C7.05437 94.9737 7.05437 97.3075 7.05437 99.764C6.40204 99.8867 5.73255 99.8867 5.08022 99.764C4.96409 97.3101 4.96409 94.9788 4.96409 92.5275C4.11189 92.7086 3.23159 92.7128 2.37772 92.5397C1.52385 92.3667 0.714568 92.0201 0 91.5215V90.5805Z" fill="#C6D4D3"/>
<path d="M48.2015 99.8854C48.0739 96.8021 48.0739 93.7188 48.0739 90.5564H50.1412V98.0048H58.4806C58.1534 98.5801 57.8792 99.1839 57.6613 99.8088C54.5999 99.8854 51.4594 99.8854 48.2015 99.8854Z" fill="#C6D4D3"/>
<path d="M72.8943 91.4168C72.87 91.4857 72.8458 91.45 72.8203 91.4168C70.0409 93.6306 66.8021 92.2479 63.7815 92.4879C63.5269 92.4846 63.2756 92.4289 63.0435 92.3241C62.8113 92.2194 62.6033 92.0678 62.4323 91.879C62.2613 91.6902 62.131 91.4682 62.0496 91.2268C61.9682 90.9853 61.9375 90.7297 61.9592 90.4758H72.7718C72.8794 90.7771 72.9211 91.098 72.8943 91.4168Z" fill="#C6D4D3"/>
<path d="M17.105 99.8866C16.7942 99.3124 16.535 98.7117 16.3304 98.0916H27.5769C27.1896 98.6365 26.8509 99.2146 26.5649 99.819C23.5086 99.8866 20.3681 99.8866 17.105 99.8866Z" fill="#C6D4D3"/>
<path d="M8.91493 16.5118C13.351 14.7659 17.9721 13.5331 22.688 12.8374C24.5078 12.582 26.3428 12.4058 28.1396 12.0381C29.9708 11.6641 30.4889 13.1336 31.3299 14.1192C33.0322 16.1083 34.6682 18.1536 36.4025 20.2628C37.9172 18.4179 39.3375 16.6994 40.7413 14.9759C41.3078 14.2813 41.8795 13.5894 42.4155 12.8718C42.6432 12.5557 42.9561 12.311 43.3176 12.1661C43.6792 12.0211 44.0744 11.9821 44.4573 12.0535C51.5667 12.6614 58.5427 14.3454 65.147 17.048C66.9948 17.8434 66.9986 17.9928 65.5859 19.5018C63.3631 21.7785 60.6704 23.5422 57.6957 24.67C56.7616 21.5088 55.5468 20.4734 52.336 20.1721C50.7064 20.0189 49.0654 19.9896 47.4294 19.8964C46.9189 19.8683 46.4187 19.8146 45.7998 19.7687L36.562 71.698L36.2519 71.7222L26.8865 19.484C23.9425 19.89 21.1439 20.1862 18.3837 20.6892C17.6162 20.8279 16.9138 21.2103 16.3806 21.7797C15.8473 22.349 15.5116 23.0751 15.4231 23.8504C15.2955 24.5398 14.9829 24.7556 14.3474 24.453C11.0112 23.0412 8.12308 20.7459 5.9939 17.814C6.96374 17.3697 7.88765 16.9459 8.91493 16.5118Z" fill="#C6D4D3"/>
<path d="M16.5372 94.8359C16.5589 94.5474 16.6342 94.1644 16.7133 94.1644C20.2609 94.135 23.8098 94.1388 27.5985 94.1388C27.0562 95.2802 26.5777 96.1816 25.3883 96.2084C23.1296 96.2633 20.8696 96.2173 18.6096 96.2275C18.1605 96.2494 17.7163 96.1258 17.343 95.8752C16.9696 95.6245 16.6871 95.26 16.5372 94.8359Z" fill="#C6D4D3"/>
<path d="M19.1609 92.566C18.5171 92.6323 17.8714 92.4595 17.3467 92.0805C16.8219 91.7015 16.4548 91.1427 16.3151 90.5105H27.2999C27.2846 90.7964 27.2129 91.0763 27.089 91.3344C26.9651 91.5924 26.7914 91.8234 26.5779 92.0139C26.3644 92.2045 26.1153 92.351 25.845 92.4448C25.5747 92.5387 25.2885 92.5781 25.0029 92.5609C23.0964 92.5813 21.1886 92.566 19.1609 92.566Z" fill="#C6D4D3"/>
<path d="M455.344 20.845C455.307 20.6166 455.196 20.407 455.026 20.2497C454.857 20.0923 454.64 19.9962 454.41 19.9768C454.027 19.9449 445.796 19.3385 445.796 19.3385C445.796 19.3385 440.084 13.6647 439.456 13.0366C439.118 12.8081 438.732 12.6622 438.328 12.6108C437.923 12.5593 437.512 12.6037 437.128 12.7404L433.932 13.7286C432.018 8.23866 428.656 3.18668 422.731 3.18668C422.568 3.18668 422.399 3.19307 422.231 3.20328C421.612 2.27577 420.786 1.50471 419.819 0.950833C418.851 0.396957 417.769 0.0753958 416.656 0.0114803C402.856 -1.01347e-05 396.262 17.2625 394.19 26.0323C388.83 27.692 385.017 28.8768 384.531 29.03C381.537 29.9697 381.443 30.0642 381.049 32.8857C380.76 35.0217 372.927 95.6199 372.927 95.6199L433.957 107.061L467.025 99.9033C467.025 99.9033 455.413 21.385 455.344 20.845ZM430.559 14.7665L425.395 16.3688C425.395 16.005 425.395 15.6462 425.395 15.2542C425.452 12.4241 425.035 9.60438 424.161 6.91215C427.217 7.29261 429.25 10.7678 430.559 14.7665ZM420.378 7.58626C421.416 10.5733 421.892 13.7267 421.782 16.8872C421.782 17.0978 421.782 17.2906 421.782 17.4859L411.116 20.7901C413.169 12.8604 417.019 9.03023 420.384 7.58626H420.378ZM416.277 3.70375C416.914 3.71716 417.532 3.9257 418.047 4.30126C413.624 6.38359 408.883 11.6284 406.881 22.1L398.451 24.7122C400.796 16.725 406.364 3.70375 416.277 3.70375Z" fill="white"/>
<path d="M454.408 19.978C454.025 19.9461 445.794 19.3397 445.794 19.3397C445.794 19.3397 440.083 13.6659 439.455 13.0378C439.211 12.8129 438.902 12.6712 438.573 12.6331L433.958 107.066L467.024 99.9096C467.024 99.9096 455.411 21.3914 455.342 20.8513C455.306 20.6229 455.194 20.4133 455.025 20.256C454.856 20.0986 454.639 20.0025 454.408 19.9831" fill="#C6D4D3"/>
<path d="M422.733 38.2581L418.649 50.3869C416.171 49.1739 413.456 48.5226 410.698 48.4795C404.277 48.4795 403.955 52.5101 403.955 53.5264C403.955 59.0686 418.395 61.1867 418.395 74.1735C418.395 84.3872 411.92 90.9636 403.19 90.9636C400.242 91.0406 397.311 90.5001 394.584 89.3768C391.857 88.2535 389.395 86.5722 387.356 84.4409L390.164 75.1681C390.164 75.1681 395.67 79.8919 400.318 79.8919C400.874 79.9157 401.428 79.8259 401.949 79.6281C402.469 79.4302 402.943 79.1284 403.343 78.7411C403.742 78.3538 404.059 77.8891 404.273 77.3753C404.487 76.8615 404.595 76.3094 404.589 75.7528C404.589 68.524 392.743 68.201 392.743 56.3224C392.743 46.3244 399.916 36.6494 414.394 36.6494C419.974 36.6494 422.73 38.2479 422.73 38.2479" fill="#1B1B20"/>
<path fill-rule="evenodd" clip-rule="evenodd" d="M620.214 214.909H618.115C617.917 214.91 617.722 214.949 617.54 215.026C617.357 215.102 617.192 215.214 617.053 215.354C616.914 215.495 616.804 215.661 616.73 215.844C616.655 216.027 616.618 216.223 616.619 216.421V234.602C616.619 239.621 618.703 241.799 624.754 241.43C625.136 241.403 625.494 241.232 625.754 240.952C626.015 240.671 626.159 240.302 626.158 239.919V238.201C626.158 238.003 626.119 237.806 626.043 237.623C625.967 237.439 625.856 237.272 625.715 237.132C625.574 236.992 625.407 236.881 625.224 236.806C625.04 236.731 624.843 236.692 624.645 236.694C622.714 236.705 621.709 236.348 621.709 234.602V226.304H624.67C624.867 226.302 625.062 226.262 625.244 226.186C625.425 226.109 625.59 225.998 625.729 225.858C625.867 225.717 625.977 225.551 626.051 225.369C626.125 225.186 626.163 224.99 626.162 224.793V222.863C626.163 222.666 626.125 222.47 626.051 222.288C625.977 222.105 625.867 221.939 625.729 221.799C625.59 221.658 625.425 221.547 625.244 221.47C625.062 221.394 624.867 221.354 624.67 221.353H621.709V216.421C621.711 216.223 621.673 216.027 621.598 215.844C621.524 215.661 621.414 215.495 621.275 215.354C621.136 215.214 620.971 215.102 620.789 215.026C620.607 214.95 620.411 214.91 620.214 214.909Z" fill="#C6D4D3"/>
<path fill-rule="evenodd" clip-rule="evenodd" d="M603.372 236.837C602.655 236.845 601.944 236.707 601.283 236.431C600.621 236.154 600.024 235.746 599.526 235.23C599.028 234.714 598.64 234.102 598.387 233.431C598.134 232.761 598.021 232.045 598.054 231.329C598.032 230.614 598.154 229.901 598.412 229.234C598.67 228.567 599.06 227.958 599.558 227.444C600.056 226.931 600.652 226.522 601.31 226.243C601.969 225.964 602.677 225.821 603.392 225.821C604.107 225.821 604.815 225.964 605.474 226.243C606.133 226.522 606.729 226.931 607.226 227.444C607.724 227.958 608.114 228.567 608.372 229.234C608.63 229.901 608.752 230.614 608.73 231.329C608.762 232.048 608.646 232.767 608.39 233.44C608.134 234.113 607.743 234.726 607.24 235.242C606.738 235.758 606.136 236.166 605.47 236.44C604.805 236.714 604.091 236.849 603.372 236.837ZM603.37 220.793C601.992 220.787 600.626 221.056 599.353 221.585C598.08 222.114 596.925 222.892 595.957 223.874C594.988 224.855 594.225 226.02 593.713 227.3C593.2 228.58 592.948 229.95 592.971 231.329C592.95 232.712 593.203 234.085 593.717 235.368C594.231 236.652 594.995 237.821 595.965 238.806C596.934 239.792 598.09 240.574 599.365 241.108C600.64 241.643 602.009 241.918 603.391 241.918C604.773 241.918 606.141 241.643 607.416 241.108C608.691 240.574 609.847 239.792 610.817 238.806C611.787 237.821 612.551 236.652 613.065 235.368C613.578 234.085 613.832 232.712 613.81 231.329C613.829 229.948 613.573 228.577 613.056 227.296C612.539 226.015 611.773 224.85 610.801 223.869C609.828 222.888 608.671 222.111 607.395 221.583C606.119 221.055 604.751 220.786 603.37 220.793Z" fill="#C6D4D3"/>
<path fill-rule="evenodd" clip-rule="evenodd" d="M638.289 236.837C637.572 236.845 636.861 236.707 636.2 236.431C635.539 236.154 634.941 235.746 634.443 235.23C633.945 234.714 633.557 234.102 633.304 233.431C633.051 232.761 632.938 232.045 632.971 231.329C632.949 230.614 633.071 229.901 633.329 229.234C633.587 228.567 633.977 227.958 634.475 227.444C634.973 226.931 635.569 226.522 636.227 226.243C636.886 225.964 637.594 225.821 638.309 225.821C639.024 225.821 639.732 225.964 640.391 226.243C641.05 226.522 641.646 226.931 642.143 227.444C642.641 227.958 643.031 228.567 643.289 229.234C643.548 229.901 643.669 230.614 643.647 231.329C643.679 232.048 643.563 232.767 643.307 233.44C643.051 234.113 642.66 234.726 642.158 235.242C641.655 235.758 641.053 236.166 640.387 236.44C639.722 236.714 639.008 236.849 638.289 236.837ZM638.288 220.793C636.909 220.787 635.543 221.056 634.27 221.585C632.997 222.114 631.842 222.892 630.874 223.874C629.905 224.855 629.142 226.02 628.63 227.3C628.117 228.58 627.865 229.95 627.888 231.329C627.867 232.712 628.12 234.085 628.634 235.368C629.148 236.652 629.912 237.821 630.882 238.806C631.852 239.792 633.008 240.574 634.282 241.108C635.557 241.643 636.926 241.918 638.308 241.918C639.69 241.918 641.059 241.643 642.333 241.108C643.608 240.574 644.764 239.792 645.734 238.806C646.704 237.821 647.468 236.652 647.982 235.368C648.496 234.085 648.749 232.712 648.727 231.329C648.746 229.948 648.49 228.577 647.973 227.296C647.456 226.015 646.69 224.85 645.718 223.869C644.746 222.888 643.588 222.111 642.312 221.583C641.036 221.055 639.668 220.786 638.288 220.793Z" fill="#C6D4D3"/>
<path fill-rule="evenodd" clip-rule="evenodd" d="M508.246 232.946C508.249 233.408 508.155 233.866 507.97 234.289C507.785 234.713 507.514 235.092 507.174 235.404C506.833 235.717 506.431 235.954 505.993 236.101C505.556 236.248 505.092 236.301 504.632 236.258C503.8 236.146 503.039 235.731 502.494 235.092C501.948 234.454 501.657 233.637 501.675 232.797V222.305C501.678 221.907 501.522 221.524 501.243 221.241C500.963 220.958 500.583 220.797 500.185 220.795H497.948C497.55 220.797 497.17 220.958 496.89 221.241C496.611 221.524 496.455 221.907 496.457 222.305V232.798C496.476 233.638 496.185 234.455 495.639 235.094C495.093 235.732 494.332 236.147 493.499 236.26C493.04 236.303 492.576 236.249 492.138 236.102C491.701 235.954 491.299 235.717 490.958 235.405C490.618 235.093 490.347 234.713 490.162 234.289C489.978 233.866 489.884 233.408 489.887 232.946V222.305C489.889 221.907 489.733 221.524 489.454 221.241C489.174 220.958 488.794 220.797 488.396 220.795H486.158C485.76 220.797 485.38 220.958 485.1 221.241C484.821 221.524 484.665 221.907 484.667 222.305V232.676C484.63 234.862 485.412 236.983 486.858 238.622C488.305 240.261 490.312 241.3 492.485 241.534C493.689 241.632 494.901 241.469 496.037 241.056C497.173 240.644 498.206 239.991 499.067 239.142C499.928 239.991 500.961 240.643 502.097 241.056C503.233 241.469 504.444 241.632 505.648 241.534C507.821 241.3 509.828 240.261 511.275 238.622C512.722 236.982 513.503 234.861 513.466 232.675V222.305C513.468 221.907 513.312 221.524 513.033 221.241C512.753 220.958 512.373 220.797 511.975 220.795H509.737C509.339 220.797 508.958 220.958 508.679 221.241C508.399 221.524 508.244 221.907 508.246 222.305V232.946Z" fill="#C6D4D3"/>
<path fill-rule="evenodd" clip-rule="evenodd" d="M582.854 220.822C581.65 220.724 580.439 220.887 579.303 221.299C578.168 221.712 577.134 222.365 576.273 223.213C575.413 222.365 574.379 221.712 573.243 221.3C572.108 220.887 570.897 220.724 569.693 220.822C567.518 221.054 565.51 222.093 564.062 223.733C562.615 225.372 561.833 227.495 561.871 229.682V240.05C561.87 240.247 561.908 240.443 561.982 240.625C562.056 240.808 562.166 240.974 562.304 241.115C562.443 241.255 562.608 241.366 562.789 241.443C562.971 241.519 563.166 241.559 563.363 241.561H565.6C565.797 241.56 565.992 241.52 566.174 241.443C566.356 241.367 566.52 241.255 566.659 241.115C566.797 240.975 566.907 240.808 566.981 240.626C567.056 240.443 567.093 240.247 567.092 240.05V229.557C567.073 228.717 567.365 227.9 567.91 227.262C568.455 226.624 569.217 226.209 570.049 226.097C570.508 226.054 570.971 226.107 571.409 226.254C571.846 226.401 572.248 226.638 572.588 226.95C572.929 227.261 573.2 227.641 573.385 228.063C573.57 228.486 573.665 228.943 573.662 229.405V240.045C573.661 240.242 573.699 240.438 573.773 240.621C573.847 240.803 573.957 240.97 574.095 241.11C574.234 241.25 574.399 241.362 574.58 241.438C574.762 241.515 574.957 241.554 575.154 241.555H577.391C577.588 241.554 577.783 241.514 577.965 241.438C578.147 241.361 578.311 241.25 578.45 241.109C578.588 240.969 578.698 240.803 578.772 240.62C578.847 240.438 578.884 240.242 578.883 240.045V229.558C578.865 228.719 579.156 227.902 579.702 227.264C580.247 226.626 581.008 226.211 581.84 226.098C582.3 226.055 582.763 226.109 583.201 226.256C583.638 226.403 584.04 226.64 584.381 226.952C584.721 227.264 584.992 227.644 585.177 228.067C585.362 228.491 585.455 228.948 585.453 229.41V240.05C585.45 240.448 585.606 240.831 585.885 241.114C586.165 241.397 586.545 241.558 586.943 241.561H589.18C589.377 241.559 589.572 241.519 589.753 241.443C589.935 241.366 590.1 241.255 590.238 241.114C590.377 240.974 590.486 240.808 590.56 240.625C590.634 240.443 590.672 240.247 590.671 240.05V229.682C590.709 227.495 589.928 225.374 588.481 223.734C587.035 222.095 585.028 221.056 582.854 220.823" fill="#C6D4D3"/>
<path fill-rule="evenodd" clip-rule="evenodd" d="M669.836 227.02C669.836 225.942 670.857 225.383 672.12 225.383C672.617 225.37 673.111 225.47 673.564 225.676C674.017 225.881 674.417 226.187 674.735 226.57C674.843 226.703 674.994 226.794 675.162 226.828C675.329 226.862 675.504 226.836 675.655 226.756L678.664 225.124C678.761 225.071 678.845 224.997 678.91 224.908C678.976 224.819 679.022 224.717 679.044 224.609C679.067 224.501 679.066 224.389 679.041 224.281C679.016 224.174 678.969 224.073 678.901 223.985C678.099 222.96 677.067 222.138 675.889 221.583C674.712 221.029 673.421 220.759 672.12 220.793C668.063 220.793 664.634 223.068 664.634 227.139C664.634 234.161 674.799 232.566 674.799 235.481C674.799 236.637 673.696 237.195 672.08 237.195C671.411 237.238 670.742 237.104 670.141 236.806C669.54 236.508 669.028 236.057 668.657 235.499C668.558 235.339 668.402 235.223 668.222 235.175C668.041 235.126 667.848 235.148 667.683 235.237L664.572 236.922C664.48 236.972 664.4 237.041 664.336 237.123C664.272 237.205 664.226 237.299 664.199 237.4C664.173 237.501 664.168 237.606 664.183 237.709C664.199 237.812 664.236 237.911 664.291 238C665.129 239.277 666.292 240.308 667.66 240.987C669.028 241.666 670.552 241.969 672.075 241.866C676.286 241.866 679.995 239.791 679.995 235.482C679.995 228.138 669.831 229.974 669.831 227.021" fill="#C6D4D3"/>
<path fill-rule="evenodd" clip-rule="evenodd" d="M549.264 236.686C548.549 236.694 547.84 236.557 547.18 236.282C546.52 236.006 545.923 235.599 545.425 235.086C544.927 234.572 544.54 233.962 544.286 233.293C544.031 232.624 543.916 231.911 543.947 231.196V231.164C543.926 230.449 544.049 229.737 544.308 229.07C544.567 228.403 544.958 227.795 545.457 227.282C545.955 226.769 546.552 226.362 547.211 226.084C547.87 225.806 548.578 225.663 549.293 225.664C550.009 225.666 550.716 225.81 551.375 226.09C552.033 226.37 552.628 226.78 553.125 227.294C553.622 227.809 554.011 228.418 554.268 229.085C554.525 229.753 554.646 230.466 554.623 231.181C554.655 231.9 554.539 232.619 554.283 233.292C554.027 233.965 553.636 234.578 553.134 235.094C552.631 235.61 552.029 236.018 551.363 236.292C550.698 236.566 549.983 236.701 549.263 236.689M549.263 220.645C547.392 220.641 545.555 221.142 543.946 222.096V214.882C543.948 214.485 543.793 214.103 543.514 213.82C543.236 213.537 542.856 213.376 542.459 213.372H540.356C539.958 213.375 539.578 213.535 539.298 213.818C539.019 214.102 538.863 214.484 538.865 214.882V231.247C538.855 232.625 539.119 233.992 539.64 235.267C540.161 236.543 540.93 237.702 541.902 238.679C542.874 239.655 544.03 240.429 545.303 240.955C546.576 241.482 547.94 241.75 549.318 241.746C550.695 241.741 552.058 241.464 553.327 240.929C554.597 240.394 555.748 239.612 556.713 238.629C557.679 237.647 558.44 236.482 558.953 235.203C559.465 233.924 559.72 232.556 559.701 231.178C559.72 229.797 559.464 228.426 558.948 227.144C558.432 225.863 557.666 224.697 556.694 223.716C555.722 222.734 554.565 221.957 553.289 221.428C552.013 220.899 550.645 220.63 549.264 220.636" fill="#C6D4D3"/>
<path fill-rule="evenodd" clip-rule="evenodd" d="M655.162 241.207H652.925C652.728 241.206 652.533 241.166 652.351 241.089C652.169 241.012 652.005 240.901 651.866 240.761C651.728 240.62 651.618 240.454 651.544 240.272C651.469 240.089 651.432 239.894 651.433 239.696V231.594C651.417 228.898 652.471 226.305 654.366 224.387C656.26 222.469 658.838 221.382 661.533 221.365C661.729 221.366 661.923 221.406 662.104 221.482C662.285 221.559 662.449 221.67 662.586 221.809C662.724 221.949 662.833 222.114 662.907 222.296C662.981 222.477 663.019 222.672 663.017 222.868V225.148C663.019 225.344 662.981 225.539 662.907 225.72C662.833 225.902 662.724 226.067 662.586 226.207C662.449 226.347 662.285 226.458 662.104 226.534C661.923 226.61 661.729 226.65 661.533 226.651C660.231 226.659 658.985 227.184 658.07 228.111C657.154 229.038 656.644 230.291 656.652 231.594V239.696C656.655 240.094 656.499 240.477 656.219 240.76C655.94 241.043 655.559 241.204 655.162 241.207Z" fill="#C6D4D3"/>
<path fill-rule="evenodd" clip-rule="evenodd" d="M467.578 239.422C467.58 239.694 467.526 239.963 467.42 240.213C467.315 240.464 467.159 240.69 466.963 240.878C466.767 241.066 466.535 241.212 466.28 241.307C466.026 241.402 465.755 241.445 465.484 241.432C464.959 241.383 464.473 241.136 464.123 240.742C463.773 240.348 463.585 239.835 463.599 239.308V234.862C463.601 234.464 463.445 234.081 463.166 233.798C462.886 233.514 462.506 233.354 462.108 233.351H457.641C457.444 233.352 457.249 233.392 457.067 233.469C456.886 233.545 456.721 233.657 456.582 233.797C456.444 233.938 456.335 234.104 456.26 234.286C456.186 234.469 456.149 234.664 456.15 234.862V240.931C456.152 241.203 456.098 241.472 455.993 241.722C455.887 241.973 455.731 242.199 455.535 242.387C455.339 242.575 455.107 242.721 454.853 242.816C454.598 242.912 454.327 242.954 454.056 242.941C453.532 242.89 453.048 242.643 452.699 242.249C452.35 241.855 452.164 241.343 452.178 240.817V234.862C452.18 234.464 452.024 234.081 451.745 233.798C451.465 233.514 451.085 233.354 450.687 233.351H446.212C446.015 233.352 445.82 233.392 445.638 233.469C445.457 233.545 445.292 233.657 445.154 233.797C445.015 233.938 444.906 234.104 444.832 234.286C444.757 234.469 444.72 234.664 444.721 234.862V239.421C444.723 239.692 444.67 239.962 444.564 240.212C444.458 240.462 444.303 240.688 444.107 240.877C443.911 241.065 443.678 241.211 443.424 241.306C443.169 241.401 442.898 241.443 442.627 241.43C442.103 241.38 441.618 241.133 441.269 240.739C440.921 240.345 440.734 239.833 440.747 239.307V223.256C440.745 222.985 440.799 222.715 440.905 222.465C441.01 222.215 441.166 221.989 441.362 221.801C441.557 221.613 441.79 221.467 442.044 221.371C442.298 221.276 442.569 221.234 442.84 221.247C443.364 221.297 443.85 221.544 444.199 221.938C444.548 222.332 444.735 222.844 444.721 223.371V227.817C444.72 228.014 444.757 228.209 444.832 228.392C444.906 228.574 445.015 228.741 445.154 228.881C445.292 229.021 445.457 229.133 445.638 229.209C445.82 229.286 446.015 229.326 446.212 229.327H450.684C451.082 229.324 451.463 229.164 451.742 228.88C452.022 228.597 452.177 228.215 452.175 227.817V221.746C452.173 221.474 452.227 221.205 452.332 220.955C452.438 220.705 452.593 220.479 452.789 220.29C452.985 220.102 453.217 219.956 453.471 219.861C453.726 219.766 453.997 219.723 454.268 219.736C454.792 219.786 455.277 220.034 455.626 220.428C455.974 220.822 456.161 221.333 456.148 221.859V227.815C456.146 228.012 456.184 228.208 456.258 228.39C456.332 228.573 456.441 228.739 456.58 228.88C456.718 229.02 456.883 229.131 457.065 229.208C457.246 229.285 457.441 229.325 457.638 229.326H462.111C462.508 229.322 462.888 229.162 463.166 228.879C463.445 228.596 463.601 228.214 463.599 227.817V223.371C463.585 222.845 463.772 222.333 464.121 221.939C464.47 221.545 464.955 221.298 465.478 221.248C465.75 221.235 466.021 221.277 466.275 221.372C466.53 221.467 466.762 221.614 466.958 221.802C467.154 221.99 467.31 222.216 467.415 222.466C467.521 222.716 467.574 222.986 467.573 223.257L467.578 239.422ZM454.163 207.029C447.759 207.069 441.632 209.653 437.132 214.212C432.631 218.771 430.125 224.932 430.165 231.339C430.125 237.747 432.631 243.908 437.132 248.467C441.632 253.026 447.759 255.609 454.163 255.649C460.568 255.609 466.694 253.025 471.194 248.466C475.694 243.907 478.2 237.746 478.161 231.339C478.2 224.932 475.694 218.771 471.194 214.212C466.694 209.653 460.568 207.069 454.163 207.029Z" fill="#C6D4D3"/>
<path fill-rule="evenodd" clip-rule="evenodd" d="M526.109 225.52C527.097 225.498 528.07 225.758 528.915 226.27C529.759 226.782 530.44 227.525 530.878 228.41H521.388C521.819 227.53 522.492 226.79 523.329 226.278C524.165 225.767 525.129 225.503 526.109 225.52ZM531.525 234.867C531.259 234.716 530.951 234.653 530.647 234.688C530.342 234.723 530.057 234.854 529.832 235.062C528.834 236.025 527.496 236.554 526.109 236.534C525.108 236.553 524.122 236.279 523.273 235.746C522.425 235.213 521.749 234.444 521.33 233.534C521.275 233.419 521.249 233.291 521.255 233.164C521.262 233.036 521.3 232.912 521.366 232.803C521.433 232.694 521.526 232.603 521.636 232.539C521.747 232.475 521.871 232.439 521.999 232.436H535.16C535.53 232.433 535.884 232.284 536.145 232.02C536.405 231.757 536.552 231.402 536.552 231.031C536.573 229.649 536.32 228.276 535.806 226.992C535.292 225.708 534.528 224.54 533.558 223.554C532.589 222.569 531.433 221.786 530.158 221.252C528.883 220.718 527.515 220.443 526.132 220.443C524.75 220.443 523.382 220.718 522.107 221.252C520.832 221.786 519.676 222.569 518.706 223.554C517.737 224.54 516.973 225.708 516.459 226.992C515.945 228.276 515.691 229.649 515.713 231.031C515.691 233.139 516.307 235.204 517.482 236.954C518.656 238.704 520.333 240.057 522.292 240.834C524.25 241.611 526.398 241.776 528.452 241.307C530.506 240.839 532.37 239.758 533.798 238.208C533.949 238.037 534.059 237.835 534.12 237.615C534.181 237.396 534.192 237.166 534.152 236.941C534.112 236.717 534.022 236.505 533.888 236.321C533.755 236.136 533.581 235.985 533.381 235.877L531.525 234.867Z" fill="#C6D4D3"/>
<path fill-rule="evenodd" clip-rule="evenodd" d="M253.346 255.962C245.211 255.962 239.6 249.143 239.6 239.06C239.6 228.878 245.215 222.059 253.346 222.059C261.477 222.059 267.091 228.878 267.091 238.963C267.091 249.143 261.476 255.962 253.346 255.962ZM253.346 268.738C268.404 268.738 280.369 256.064 280.369 238.969C280.369 222.065 269.055 209.29 253.346 209.29C238.29 209.284 226.322 221.963 226.322 239.06C226.322 256.251 237.636 268.738 253.346 268.738Z" fill="#C6D4D3"/>
<path fill-rule="evenodd" clip-rule="evenodd" d="M291.495 246.07H317.305C317.688 246.104 318.074 246.052 318.435 245.917C318.795 245.783 319.121 245.57 319.389 245.294C319.657 245.018 319.86 244.686 319.984 244.321C320.108 243.957 320.148 243.569 320.103 243.187V234.834C320.147 234.452 320.106 234.065 319.982 233.701C319.858 233.336 319.655 233.005 319.387 232.729C319.119 232.453 318.794 232.24 318.433 232.106C318.073 231.972 317.688 231.919 317.305 231.952H300.006V196.414C300.05 196.032 300.008 195.645 299.885 195.281C299.761 194.917 299.557 194.586 299.29 194.31C299.022 194.034 298.696 193.821 298.336 193.687C297.976 193.553 297.59 193.5 297.207 193.533H288.688C288.305 193.499 287.919 193.551 287.559 193.685C287.198 193.82 286.872 194.032 286.604 194.308C286.336 194.584 286.133 194.916 286.009 195.281C285.886 195.645 285.845 196.032 285.889 196.414V240.308C285.889 244.053 287.853 246.07 291.504 246.07" fill="#C6D4D3"/>
<path fill-rule="evenodd" clip-rule="evenodd" d="M326.563 267.871L342.085 249.535L357.143 267.879C357.383 268.243 357.704 268.546 358.08 268.765C358.457 268.984 358.879 269.113 359.314 269.141C359.748 269.17 360.184 269.097 360.586 268.93C360.988 268.762 361.345 268.503 361.631 268.174L367.71 262.699C368.067 262.44 368.362 262.104 368.575 261.717C368.787 261.33 368.911 260.901 368.937 260.46C368.964 260.019 368.893 259.578 368.729 259.168C368.565 258.758 368.313 258.39 367.99 258.089L351.251 238.867L366.493 221.289C366.804 220.982 367.047 220.612 367.203 220.203C367.36 219.794 367.427 219.357 367.401 218.92C367.374 218.483 367.255 218.057 367.05 217.671C366.845 217.284 366.56 216.946 366.213 216.679L360.51 211.397C360.232 211.056 359.876 210.787 359.472 210.612C359.068 210.437 358.629 210.36 358.19 210.389C357.751 210.418 357.325 210.551 356.948 210.778C356.571 211.004 356.253 211.318 356.021 211.692L342.09 228.301L327.871 211.685C327.631 211.322 327.31 211.019 326.934 210.8C326.557 210.581 326.135 210.452 325.7 210.424C325.266 210.395 324.83 210.468 324.428 210.635C324.026 210.803 323.669 211.062 323.383 211.39L317.491 216.768C317.139 217.034 316.851 217.375 316.646 217.766C316.442 218.157 316.327 218.588 316.309 219.029C316.291 219.47 316.371 219.909 316.543 220.315C316.715 220.721 316.975 221.084 317.304 221.378L332.822 238.963L315.897 258.269C315.573 258.569 315.32 258.938 315.156 259.348C314.991 259.758 314.92 260.199 314.947 260.64C314.973 261.081 315.098 261.511 315.31 261.898C315.523 262.285 315.819 262.62 316.177 262.879L322.065 268.16C322.356 268.48 322.715 268.73 323.116 268.892C323.516 269.054 323.949 269.123 324.38 269.095C324.811 269.067 325.231 268.941 325.607 268.728C325.983 268.515 326.306 268.22 326.553 267.865" fill="#C6D4D3"/>
</g>
<defs>
<clipPath id="clip0_9_2491">
<rect width="680" height="276" fill="white"/>
</clipPath>
</defs>
</svg>
