<svg xmlns="http://www.w3.org/2000/svg" viewBox="0 0 40 56">
	<path d="m20 10.7c9.5393 0 17.3 7.7607 17.3 17.3s-7.7607 17.3-17.3 17.3-17.3-7.7607-17.3-17.3 7.7607-17.3 17.3-17.3m0-2.2c-10.7696 0-19.5 8.7305-19.5 19.5s8.7304 19.5 19.5 19.5 19.5-8.7305 19.5-19.5-8.7304-19.5-19.5-19.5zm-9.9707 26.7699v-15.0195c0-.8203.4102-1.3672 1.1523-1.3672h3.1836c3.1836 0 4.7266 1.7383 4.7266 4.7852 0 2.0703-.918 4.082-2.6562 4.6289l2.7539 6.5625c.3711.8984-.3125 1.4258-.9766 1.4258-.3906 0-.7617-.1953-.9375-.6445l-2.8125-6.9531h-2.3828v6.582c0 .6055-.4297 1.0352-1.0156 1.0352-.6055 0-1.0352-.4297-1.0352-1.0352zm4.1602-8.1836c1.9531 0 2.832-1.3281 2.832-3.3594 0-2.0117-.9375-3.1641-2.8711-3.1641h-2.0703v6.5234h2.1094zm10.5273 9.7852v-1.4062c-2.3438-.2539-3.7695-1.8164-3.9453-3.9648-.1172-.7812.3711-1.2305.918-1.2305.4492 0 .8203.293.8789.8398.0781 1.4648.7422 2.4219 2.1484 2.6562v-5.625l-.7227-.3516c-1.8945-.9375-3.125-2.207-3.125-4.3359 0-2.2461 1.582-3.75 3.8477-3.9648v-1.3086c0-.3711.3125-.6836.7031-.6836.3516 0 .6641.3125.6641.6836v1.3281c2.168.293 3.418 1.8555 3.5938 3.8867.0977.8203-.3906 1.2305-.9375 1.2305-.4492 0-.8594-.3125-.8984-.8398-.0391-1.3086-.6641-2.2656-1.7578-2.5586v5.4492l.625.3125c2.2852 1.1719 3.2617 2.4609 3.2617 4.3555 0 2.3633-1.5625 3.8867-3.8867 4.1406v1.3867c0 .3906-.3125.7031-.6641.7031-.3906 0-.7031-.3125-.7031-.7031zm0-10.8984v-4.8047c-1.1523.1953-1.9336.9961-1.9336 2.207 0 1.4062.9961 2.1094 1.9336 2.5977zm1.3672 2.8516v4.9414c1.25-.2148 1.9727-1.0938 1.9727-2.2852 0-1.2695-.8984-2.0703-1.9727-2.6562z" fill="#000"/>
</svg>
